# xmcd CD database file
#
# Track frame offsets:
#	150
#	18410
#	41475
#	58905
#	76985
#	96292
#	115406
#	132538
#	153340
#	169473
#	185704
#	202936
#	223465
#	239174
#	261466
#	279986
#	299137
#	314279
#
# Disc length: 4502 seconds
#
# Revision: 2
# Processed by: cddbd v1.5.2PL0 Copyright (c) Steve Scherf et al.
# Submitted via: CDex 1.51
#
DISCID=27119412
DTITLE=Ten years of Groove - Ten years of Groove
DYEAR=2001
DGENRE=R&B
TTITLE0=Coolio - Gangsta's Paradise
TTITLE1=Blackstreet - No dignity
TTITLE2=Craig David - Fill me in
TTITLE3=De La Soul - All good ?
TTITLE4=Fugees - Fu-Gee-La
TTITLE5=Luniz - I got 5 on it
TTITLE6=Jennifer Lopez - If you had my love
TTITLE7=Montell Jordan - Get it on tonite
TTITLE8=Lucy Pearl - Don't mess with my man
TTITLE9=TLC - No scrubs
TTITLE10=Will Smith - Gettin' jiggy wit it
TTITLE11=Missy Elliot - All n my grill
TTITLE12=Wyclef Jean - Gone till november
TTITLE13=Joe - I wanna know
TTITLE14=Des'ree - You gotta be
TTITLE15=Nas - Affirmative action
TTITLE16=Spooks - Things I've seen
TTITLE17=Urban Species - Spiritual love
EXTD=YEAR: 2001
EXTT0=
EXTT1=
EXTT2=
EXTT3=
EXTT4=
EXTT5=
EXTT6=
EXTT7=
EXTT8=
EXTT9=
EXTT10=
EXTT11=
EXTT12=
EXTT13=
EXTT14=
EXTT15=
EXTT16=
EXTT17=
PLAYORDER=
